HIERARCHY
ROOT Hips
{
	OFFSET 0.00000 0.00000 0.00000
	CHANNELS 6 Xposition Yposition Zposition Zrotation Yrotation Xrotation 
	JOINT LHipJoint
	{
		OFFSET 0 0 0
		CHANNELS 3 Zrotation Yrotation Xrotation
		JOINT LeftHip
		{
			OFFSET 1.40001 -1.72600 0.84541
			CHANNELS 3 Zrotation Yrotation Xrotation
			JOINT LeftKnee
			{
				OFFSET 2.34760 -6.44999 0.00000
				CHANNELS 3 Zrotation Yrotation Xrotation
				JOINT LeftAnkle
				{
					OFFSET 2.50650 -6.88655 0.00000
					CHANNELS 3 Zrotation Yrotation Xrotation
					JOINT LeftToe
					{
						OFFSET 0.12464 -0.34243 1.95563
						CHANNELS 3 Zrotation Yrotation Xrotation
						End Site
						{
							OFFSET 0.00000 -0.00000 1.00479
						}
					}
				}
			}
		}
	}
	JOINT RHipJoint
	{
		OFFSET 0 0 0
		CHANNELS 3 Zrotation Yrotation Xrotation
		JOINT RightHip
		{
			OFFSET -1.40958 -1.72600 0.84541
			CHANNELS 3 Zrotation Yrotation Xrotation
			JOINT RightKnee
			{
				OFFSET -2.37905 -6.53640 0.00000
				CHANNELS 3 Zrotation Yrotation Xrotation
				JOINT RightAnkle
				{
					OFFSET -2.50470 -6.88163 0.00000
					CHANNELS 3 Zrotation Yrotation Xrotation
					JOINT RightToe
					{
						OFFSET -0.12236 -0.33619 1.81785
						CHANNELS 3 Zrotation Yrotation Xrotation
						End Site
						{
							OFFSET -0.00000 -0.00000 0.93746
						}
					}
				}
			}
		}
	}
	JOINT lowerback
	{
		OFFSET 0 0 0
		CHANNELS 3 Zrotation Yrotation Xrotation
		JOINT Chest
		{
			OFFSET -0.02146 1.96915 0.26424
			CHANNELS 3 Zrotation Yrotation Xrotation
			JOINT Chest2
			{
				OFFSET 0.01522 1.99484 0.02086
				CHANNELS 3 Zrotation Yrotation Xrotation
				JOINT lowerneck
				{
					OFFSET 0 0 0
					CHANNELS 3 Zrotation Yrotation Xrotation
					JOINT Neck
					{
						OFFSET -0.02954 1.71757 0.03505
						CHANNELS 3 Zrotation Yrotation Xrotation
						JOINT Head
						{
							OFFSET 0.04170 1.65781 -0.11024
							CHANNELS 3 Zrotation Yrotation Xrotation
							End Site
							{
								OFFSET 0.01600 1.81465 -0.05144
							}
						}
					}
				}
				JOINT LeftCollar
				{
					OFFSET 0 0 0
					CHANNELS 3 Zrotation Yrotation Xrotation
					JOINT LeftShoulder
					{
						OFFSET 2.77679 1.60868 -0.78649
CHANNELS 3 Zrotation Xrotation Yrotation
						JOINT LeftElbow
						{
OFFSET 0 -4.626720 -0.000000
CHANNELS 3 Zrotation Xrotation Yrotation
							JOINT LeftWrist
							{
OFFSET 0 -3.110180 -0.000000
CHANNELS 3 Zrotation Xrotation Yrotation
								JOINT lhand
								{
									OFFSET 0 0 0
CHANNELS 3 Zrotation Xrotation Yrotation
									JOINT LFingers
									{
OFFSET 0 -0.743830 -0.000000
CHANNELS 3 Zrotation Xrotation Yrotation
										End Site
										{
OFFSET 0 -0.599700 -0.000000
										}
									}
								}
								JOINT LThumb
								{
OFFSET 0 0.000000 0.000000
CHANNELS 3 Zrotation Xrotation Yrotation
									End Site
									{
OFFSET 0 -0.608850 0.608850
									}
								}
							}
						}
					}
				}
				JOINT RightCollar
				{
					OFFSET 0 0 0
					CHANNELS 3 Zrotation Yrotation Xrotation
					JOINT RightShoulder
					{
						OFFSET -2.73247 1.63658 -0.74740
CHANNELS 3 Zrotation Xrotation Yrotation
						JOINT RightElbow
						{
OFFSET 0 -4.559190 -0.000000
CHANNELS 3 Zrotation Xrotation Yrotation
							JOINT RightWrist
							{
OFFSET 0 -3.227480 -0.000000
CHANNELS 3 Zrotation Xrotation Yrotation
								JOINT rhand
								{
									OFFSET 0 0 0
CHANNELS 3 Zrotation Xrotation Yrotation
									JOINT RFingers
									{
OFFSET 0 -0.700880 -0.000000
CHANNELS 3 Zrotation Xrotation Yrotation
										End Site
										{
OFFSET 0 -0.565070 -0.000000
										}
									}
								}
								JOINT RThumb
								{
OFFSET 0 0.000000 0.000000
CHANNELS 3 Zrotation Xrotation Yrotation
									End Site
									{
OFFSET 0 -0.573700 0.573700
									}
								}
							}
						}
					}
				}
			}
		}
	}
}
MOTION
Frames: 11
Frame Time: 0.008333333333333333
-0.510024 16.365343 -4.676609 1.692533 1.403845 15.139585 0.000000 0.000000 0.000000 -24.721217 -3.602324 -23.029005 3.131577 10.904653 31.959527 1.154751 -15.208258 -20.555000 0.009149 0.614438 1.688446 0.000000 0.000000 0.000000 15.472672 10.276063 -46.460751 -9.640404 -17.195753 58.269869 -0.541966 1.967861 -13.366812 -0.095072 1.748488 -4.816585 -5.132810 -1.508332 -12.517515 0.064728 -1.396458 -4.970177 2.764506 -0.647383 1.915426 -0.311688 -0.426047 -4.011316 1.873068 -0.746458 10.526767 0.644773 -0.294818 4.172156 0.000000 0.000000 0.000000 4.565992 -1.216476 -25.462629 13.653248 -22.234089 2.697280 17.199371 2.334754 15.406911 0.000000 0.000000 0.000000 -7.125000 0.000000 0.000000 -7.021145 13.974334 -5.157171 0.000000 0.000000 0.000000 3.409742 17.691176 8.068316 -11.604728 -19.206214 -1.972576 -22.653446 11.198990 33.698992 0.000000 0.000000 0.000000 7.125000 0.000000 0.000000 12.986593 65.392699 -6.448366
-0.511471 16.368829 -4.547227 1.702400 1.702535 15.126956 0.000000 0.000000 0.000000 -24.738450 -3.268773 -22.373216 3.061130 10.793360 31.586181 1.171853 -15.544375 -20.776601 0.006847 0.534915 1.469937 0.000000 0.000000 0.000000 15.452215 10.384988 -46.729052 -9.063612 -16.848060 56.309406 -0.566698 1.894784 -13.695036 -0.005616 0.425463 -1.169355 -5.141229 -1.606997 -12.446345 0.109785 -1.530773 -4.953930 2.798118 -0.713948 1.906678 -0.367663 -0.414142 -4.008948 1.941804 -0.732974 10.516900 0.678319 -0.287254 4.168867 0.000000 0.000000 0.000000 4.882376 -1.599228 -26.748687 14.202743 -23.023668 2.907041 16.962313 1.331863 15.247732 0.000000 0.000000 0.000000 -7.125000 0.000000 0.000000 -7.177035 14.161402 -5.245114 0.000000 0.000000 0.000000 3.566027 17.684927 5.962949 -11.009584 -18.302843 -1.779128 -22.262537 12.589369 33.655777 0.000000 0.000000 0.000000 7.125000 0.000000 0.000000 13.420980 65.240098 -6.620897
-0.512982 16.370640 -4.416943 1.668704 2.021589 15.090613 0.000000 0.000000 0.000000 -24.705549 -2.853897 -21.648152 2.976185 10.655710 31.128030 1.178257 -15.837897 -20.912172 0.004093 0.402485 1.106050 0.000000 0.000000 0.000000 15.563605 10.376889 -46.903657 -8.468454 -16.444625 54.219740 -0.537106 1.269063 -13.469133 -0.004444 -0.145860 0.400821 -5.136825 -1.723189 -12.439809 0.182809 -1.685129 -4.879042 2.848870 -0.793853 1.997104 -0.391612 -0.420473 -3.985379 1.969427 -0.740626 10.411790 0.690922 -0.291418 4.126914 0.000000 0.000000 0.000000 5.199404 -2.129872 -27.942466 14.691406 -23.712139 3.102173 17.023230 0.190682 15.350054 0.000000 0.000000 0.000000 -7.125000 0.000000 0.000000 -7.138378 14.050238 -5.233303 0.000000 0.000000 0.000000 3.639312 17.700137 4.080675 -10.525278 -17.555095 -1.631433 -21.833866 13.974271 33.961058 0.000000 0.000000 0.000000 7.125000 0.000000 0.000000 14.208309 65.415050 -7.075872
-0.514767 16.370119 -4.286610 1.645558 2.333026 15.051814 0.000000 0.000000 0.000000 -24.676050 -2.397086 -20.922469 2.887977 10.510685 30.647575 1.169966 -16.222607 -20.979424 0.004322 0.407928 1.120972 0.000000 0.000000 0.000000 15.706493 10.329198 -47.029090 -7.871011 -16.014562 52.081859 -0.510196 0.556254 -13.324302 -0.008124 -0.066381 0.182311 -5.138984 -1.829018 -12.452169 0.243752 -1.823221 -4.790731 2.892183 -0.866480 2.110405 -0.389182 -0.444315 -3.968593 1.974835 -0.771651 10.307396 0.690278 -0.307065 4.086607 0.000000 0.000000 0.000000 5.530557 -2.736011 -29.122608 15.155813 -24.360985 3.290959 17.187560 -0.972099 15.488375 0.000000 0.000000 0.000000 -7.125000 0.000000 0.000000 -7.031266 13.891526 -5.177030 0.000000 0.000000 0.000000 3.715409 17.767886 2.304282 -10.103311 -16.900137 -1.505626 -21.439283 15.280646 34.271748 0.000000 0.000000 0.000000 7.125000 0.000000 0.000000 14.965543 65.603165 -7.525067
-0.516872 16.366896 -4.156241 1.635889 2.635005 15.010704 0.000000 0.000000 0.000000 -24.651778 -1.892911 -20.197746 2.796285 10.357624 30.142939 1.144643 -16.715666 -20.968373 0.008072 0.576907 1.585221 0.000000 0.000000 0.000000 15.883234 10.237769 -47.098945 -7.271329 -15.554523 49.890390 -0.487766 -0.245559 -13.288388 -0.015359 0.760624 -2.090457 -5.149179 -1.922223 -12.485189 0.289795 -1.941684 -4.688054 2.926321 -0.930218 2.248206 -0.356491 -0.488320 -3.960305 1.955102 -0.829666 10.206166 0.674558 -0.335941 4.049180 0.000000 0.000000 0.000000 5.878317 -3.427386 -30.288954 15.593160 -24.965667 3.472634 17.466320 -2.156928 15.662682 0.000000 0.000000 0.000000 -7.125000 0.000000 0.000000 -6.848343 13.684133 -5.070867 0.000000 0.000000 0.000000 3.796840 17.896939 0.647048 -9.752000 -16.350576 -1.404462 -21.085736 16.494745 34.580305 0.000000 0.000000 0.000000 7.125000 0.000000 0.000000 15.678756 65.798784 -7.960572
-0.519285 16.358979 -4.026490 1.597188 2.863417 14.948531 0.000000 0.000000 0.000000 -24.589951 -1.361866 -19.484203 2.711450 10.211913 29.666409 1.131858 -17.144917 -21.031446 0.013118 0.729950 2.005984 0.000000 0.000000 0.000000 16.088018 10.183031 -47.069721 -6.681777 -15.046488 47.639746 -0.496345 -0.721599 -13.593689 -0.137733 2.146088 -5.918337 -5.103164 -1.955264 -12.439637 0.299333 -1.992077 -4.626763 2.903136 -0.957634 2.291315 -0.273952 -0.545419 -3.929101 1.933331 -0.909362 10.130880 0.648583 -0.373712 4.016448 0.000000 0.000000 0.000000 6.282657 -3.972861 -31.474262 16.087767 -25.636997 3.685316 17.896045 -3.306300 15.711103 0.000000 0.000000 0.000000 -7.125000 0.000000 0.000000 -6.560966 13.590088 -4.868096 0.000000 0.000000 0.000000 3.963698 18.026486 -1.317798 -9.388335 -15.776122 -1.304657 -20.735339 17.822314 34.367587 0.000000 0.000000 0.000000 7.125000 0.000000 0.000000 15.892314 65.496354 -7.959613
-0.521692 16.351638 -3.897000 1.550627 3.095265 14.890032 0.000000 0.000000 0.000000 -24.511391 -0.825910 -18.789593 2.628133 10.066679 29.193409 1.121650 -17.563446 -21.112302 0.017284 0.847113 2.328177 0.000000 0.000000 0.000000 16.282694 10.125743 -47.017295 -6.101999 -14.515948 45.369893 -0.505475 -1.069271 -13.860495 -0.268898 3.293282 -9.100155 -5.050721 -1.987763 -12.361113 0.313664 -2.045134 -4.587494 2.882129 -0.985036 2.293628 -0.202917 -0.593947 -3.899908 1.932803 -0.978977 10.070636 0.632329 -0.405917 3.989612 0.000000 0.000000 0.000000 6.664967 -4.448353 -32.578989 16.606747 -26.333834 3.912736 18.285015 -4.360709 15.682659 0.000000 0.000000 0.000000 -7.125000 0.000000 0.000000 -6.298382 13.579504 -4.672639 0.000000 0.000000 0.000000 4.130451 18.165266 -3.378487 -9.040258 -15.223880 -1.211331 -20.374761 19.213328 34.076929 0.000000 0.000000 0.000000 7.125000 0.000000 0.000000 16.045640 65.117353 -7.897948
-0.524060 16.345521 -3.767815 1.495769 3.338506 14.838529 0.000000 0.000000 0.000000 -24.412990 -0.285558 -18.120253 2.546307 9.921445 28.722780 1.113888 -17.972837 -21.211163 0.020113 0.915915 2.517481 0.000000 0.000000 0.000000 16.460817 10.061611 -46.941586 -5.534876 -13.958494 43.078708 -0.512579 -1.268113 -14.043156 -0.401897 4.059510 -11.245317 -4.994416 -2.024927 -12.243900 0.337936 -2.108016 -4.575062 2.869302 -1.015688 2.247848 -0.152335 -0.629401 -3.875571 1.961942 -1.032651 10.028934 0.630487 -0.429596 3.970537 0.000000 0.000000 0.000000 7.011608 -4.839854 -33.570172 17.154401 -27.060070 4.157819 18.603833 -5.286510 15.558868 0.000000 0.000000 0.000000 -7.125000 0.000000 0.000000 -6.079610 13.674551 -4.496030 0.000000 0.000000 0.000000 4.289366 18.316814 -5.544500 -8.714928 -14.704708 -1.126874 -19.999770 20.682178 33.725026 0.000000 0.000000 0.000000 7.125000 0.000000 0.000000 16.160354 64.676915 -7.791325
-0.527846 16.341531 -3.639931 1.388196 3.613837 14.807474 0.000000 0.000000 0.000000 -24.221804 0.202669 -17.478572 2.461586 9.766755 28.225438 1.086801 -18.447947 -21.216177 0.023769 0.994055 2.732493 0.000000 0.000000 0.000000 16.666479 10.031579 -46.819013 -4.994111 -13.363040 40.768906 -0.515546 -1.388531 -14.137051 -0.487086 4.466301 -12.393724 -4.921150 -2.085021 -12.163328 0.421660 -2.202043 -4.529949 2.903164 -1.063597 2.260516 -0.168357 -0.658294 -3.943959 1.979497 -1.072318 10.027300 0.637274 -0.448607 3.984320 0.000000 0.000000 0.000000 7.247794 -5.328039 -34.291157 17.667127 -27.726085 4.394686 18.802089 -6.057001 15.485547 0.000000 0.000000 0.000000 -7.125000 0.000000 0.000000 -5.943399 13.729942 -4.387207 0.000000 0.000000 0.000000 4.350651 18.446851 -7.645742 -8.440837 -14.264314 -1.058670 -19.713900 22.197125 33.530325 0.000000 0.000000 0.000000 7.125000 0.000000 0.000000 16.316378 64.412649 -7.768030
-0.532489 16.336638 -3.512840 1.330983 3.868740 14.792237 0.000000 0.000000 0.000000 -24.077246 0.648068 -16.830414 2.374522 9.605201 27.708187 1.053576 -18.899363 -21.176880 0.028115 1.080786 2.971206 0.000000 0.000000 0.000000 16.814459 10.003335 -46.694303 -4.469806 -12.749063 38.454513 -0.516254 -1.426956 -14.163877 -0.573042 4.840513 -13.455647 -4.918379 -2.145069 -12.104830 0.497054 -2.286157 -4.477362 2.968767 -1.106863 2.294166 -0.166558 -0.700028 -3.986508 1.963680 -1.126372 9.981788 0.628991 -0.475995 3.977041 0.000000 0.000000 0.000000 7.482469 -5.856950 -34.994073 18.148445 -28.345247 4.620278 19.043239 -6.846682 15.511085 0.000000 0.000000 0.000000 -7.125000 0.000000 0.000000 -5.782164 13.677523 -4.272834 0.000000 0.000000 0.000000 4.393691 18.530454 -9.862844 -8.150372 -13.795708 -0.988346 -19.487427 23.856008 33.275529 0.000000 0.000000 0.000000 7.125000 0.000000 0.000000 16.353068 64.107521 -7.670995
-0.538277 16.329863 -3.386813 1.366370 4.084092 14.799209 0.000000 0.000000 0.000000 -24.026599 1.032728 -16.166468 2.284145 9.434117 27.163165 1.013847 -19.299612 -21.082162 0.033443 1.179911 3.244111 0.000000 0.000000 0.000000 16.862475 9.971697 -46.574787 -3.967670 -12.111691 36.136031 -0.514018 -1.345130 -14.096917 -0.669141 5.227935 -14.560557 -5.034671 -2.200781 -12.075823 0.547701 -2.348184 -4.418558 3.077890 -1.139291 2.351457 -0.123080 -0.764094 -3.969340 1.895142 -1.206685 9.856682 0.594327 -0.518026 3.929025 0.000000 0.000000 0.000000 7.735181 -6.434860 -35.717481 18.584607 -28.898557 4.828855 19.377317 -7.696775 15.689799 0.000000 0.000000 0.000000 -7.125000 0.000000 0.000000 -5.564445 13.455199 -4.136743 0.000000 0.000000 0.000000 4.424869 18.541701 -12.282491 -7.823464 -13.266077 -0.911520 -19.342061 25.742998 32.892711 0.000000 0.000000 0.000000 7.125000 0.000000 0.000000 16.185865 63.702471 -7.437226
